<mxfile host="app.diagrams.net" modified="2023-08-14T14:40:21.541Z" agent="Mozilla/5.0 (Windows NT 10.0; Win64; x64) AppleWebKit/537.36 (KHTML, like Gecko) Chrome/115.0.0.0 Safari/537.36" etag="Qf_e_BA7ohDEH86hAepJ" version="21.6.8" type="device">
  <diagram name="PÃ¡gina-1" id="kDENO-DgtMhCEyzzKAze">
    <mxGraphModel dx="1032" dy="515" grid="1" gridSize="10" guides="1" tooltips="1" connect="1" arrows="1" fold="1" page="1" pageScale="1" pageWidth="827" pageHeight="1169" math="0" shadow="0">
      <root>
        <mxCell id="0" />
        <mxCell id="1" parent="0" />
      </root>
    </mxGraphModel>
  </diagram>
</mxfile>
